<svg height="512" viewBox="0 0 512 512" width="512" xmlns="http://www.w3.org/2000/svg"><path d="m288 134.311v-6.311h-64v6.311a107.792 107.792 0 0 1 -48 89.689 107.792 107.792 0 0 0 -48 89.689v158.311a24 24 0 0 0 24 24h208a24 24 0 0 0 24-24v-158.311a107.792 107.792 0 0 0 -48-89.689 107.792 107.792 0 0 1 -48-89.689z" fill="#dc6e1e"/><rect fill="#736969" height="32" rx="8" width="80" x="216" y="16"/><path d="m288 16h-40a8 8 0 0 1 8 8v16a8 8 0 0 1 -8 8h40a8 8 0 0 0 8-8v-16a8 8 0 0 0 -8-8z" fill="#3c413c"/><path d="m224 48h32v80h-32z" fill="#736969"/><path d="m256 48h32v80h-32z" fill="#3c413c"/><path d="m224 48h32v8h-32z" fill="#3c413c"/><path d="m256 128h-32v6.312a107.792 107.792 0 0 1 -48 89.688 107.792 107.792 0 0 0 -48 89.688v158.312h128z" fill="#faa01e"/><rect fill="#736969" height="144" rx="48" width="96" x="208" y="288"/><path d="m150 472h-12v-158.312a97.6 97.6 0 0 1 43.547-81.368 117.554 117.554 0 0 0 52.453-98.008v-6.312h12v6.312a129.532 129.532 0 0 1 -57.8 107.993 85.62 85.62 0 0 0 -38.2 71.383z" fill="#facc0a"/><path d="m256 288a48 48 0 0 1 48 48v48a48 48 0 0 1 -48 48 0 0 0 0 1 0 0v-144a0 0 0 0 1 0 0z" fill="#3c413c"/></svg>