<svg height="512" viewBox="0 0 256 256" width="512" xmlns="http://www.w3.org/2000/svg"><g fill="#65c1d6"><path d="m122.25 194h-10.167a2.5 2.5 0 1 1 0-5h10.167a2.5 2.5 0 0 1 0 5z"/><path d="m122.25 227h-64.4a2.5 2.5 0 0 1 0-5h64.4a2.5 2.5 0 0 1 0 5z"/><path d="m122.25 210.5h-64.4a2.5 2.5 0 0 1 0-5h64.4a2.5 2.5 0 0 1 0 5z"/><path d="m68.333 194h-10.485a2.5 2.5 0 0 1 0-5h10.485a2.5 2.5 0 0 1 0 5z"/><path d="m122.25 177.5h-10.167a2.5 2.5 0 1 1 0-5h10.167a2.5 2.5 0 0 1 0 5z"/><path d="m68.333 177.5h-10.485a2.5 2.5 0 0 1 0-5h10.485a2.5 2.5 0 0 1 0 5z"/><path d="m122.25 161h-10.167a2.5 2.5 0 1 1 0-5h10.167a2.5 2.5 0 0 1 0 5z"/><path d="m68.333 161h-10.485a2.5 2.5 0 0 1 0-5h10.485a2.5 2.5 0 0 1 0 5z"/><path d="m122.25 144.5h-64.4a2.5 2.5 0 0 1 0-5h64.4a2.5 2.5 0 0 1 0 5z"/><path d="m119.583 128h-59.067a2.5 2.5 0 1 1 0-5h59.067a2.5 2.5 0 0 1 0 5z"/><path d="m197.25 143.461h-49.758a2.5 2.5 0 1 1 0-5h49.758a2.5 2.5 0 0 1 0 5z"/><path d="m197.25 155.383h-49.758a2.5 2.5 0 0 1 0-5h49.758a2.5 2.5 0 0 1 0 5z"/><path d="m191.2 167.305h-37.653a2.5 2.5 0 1 1 0-5h37.653a2.5 2.5 0 0 1 0 5z"/><path d="m195.691 131.54h-46.64a2.5 2.5 0 1 1 0-5h46.64a2.5 2.5 0 1 1 0 5z"/></g><path d="m200.336 143.206-5.968-39.935a2.5 2.5 0 0 0 -2.473-2.131h-39.047a2.5 2.5 0 0 0 -2.473 2.131l-5.969 39.935a28.262 28.262 0 0 0 25.465 32.335v54.617h-13.056a2.5 2.5 0 0 0 0 5h31.112a2.5 2.5 0 0 0 0-5h-13.056v-54.617a28.262 28.262 0 0 0 25.465-32.335zm-10.336 19.373a23.275 23.275 0 0 1 -40.651-18.634l5.65-37.8h34.739l5.65 37.8a23.257 23.257 0 0 1 -5.388 18.634z" fill="#846f75"/><path d="m113.3 113a25.338 25.338 0 0 1 -9.575-19.9l-.044-42.988a7.8 7.8 0 0 0 0-12.347v-14.423a2.5 2.5 0 0 0 -2.5-2.5h-22.259a2.5 2.5 0 0 0 -2.5 2.5v14.424a7.8 7.8 0 0 0 0 12.348v42.969a25.339 25.339 0 0 1 -9.595 19.917 30.309 30.309 0 0 0 -11.479 23.826v95.832a2.5 2.5 0 0 0 2.5 2.5h64.4a2.5 2.5 0 0 0 2.5-2.5v-95.85a30.314 30.314 0 0 0 -11.448-23.808zm-34.913-69.06a2.828 2.828 0 0 1 2.825-2.825h17.675a2.825 2.825 0 1 1 0 5.65h-17.675a2.828 2.828 0 0 1 -2.825-2.825zm20.29 7.825v30.835h-17.255v-30.835zm-17.255-25.923h17.255v10.273h-17.255zm38.328 204.316h-59.4v-93.332a25.334 25.334 0 0 1 9.595-19.916 30.312 30.312 0 0 0 11.477-23.827v-5.483h17.255l.044 5.5a30.315 30.315 0 0 0 11.455 23.807 25.34 25.34 0 0 1 9.574 19.9z" fill="#846f75"/><path d="m68.935 139.5a2.5 2.5 0 0 0 -2.5 2.5v66a2.5 2.5 0 0 0 2.5 2.5h42.229a2.5 2.5 0 0 0 2.5-2.5v-66a2.5 2.5 0 0 0 -2.5-2.5zm39.729 66h-37.229v-61h37.229z" fill="#846f75"/></svg>