<svg height="512" viewBox="0 0 256 256" width="512" xmlns="http://www.w3.org/2000/svg"><path d="m220.962 182.792h-65.916a2.5 2.5 0 0 1 0-5h65.916a2.5 2.5 0 0 1 0 5z" fill="#f9b087"/><path d="m220.962 208.125h-65.916a2.5 2.5 0 0 1 0-5h65.916a2.5 2.5 0 0 1 0 5z" fill="#ebe7f2"/><path d="m116.038 226.375a2.5 2.5 0 0 1 -2.5-2.5v-88.33a23.106 23.106 0 0 0 -15.033-21.587l-8.22-3.038a15.491 15.491 0 0 1 -10.08-14.474v-37.487a2.5 2.5 0 1 1 5 0v37.487a10.469 10.469 0 0 0 6.815 9.784l8.219 3.039a28.123 28.123 0 0 1 18.3 26.276v88.33a2.5 2.5 0 0 1 -2.501 2.5z" fill="#ebe7f2"/><path d="m97.038 81.032h-28.666a2.5 2.5 0 0 1 0-5h28.666a2.5 2.5 0 0 1 0 5z" fill="#f9b087"/><path d="m115.705 190.878h-66a2.5 2.5 0 0 1 -2.5-2.5v-46.093a2.5 2.5 0 0 1 2.5-2.5h66a2.5 2.5 0 0 1 2.5 2.5v46.093a2.5 2.5 0 0 1 -2.5 2.5zm-63.5-5h61v-41.093h-61z" fill="#f9b087"/><g fill="#846f75"><path d="m114.572 100.119-12.324-4.556a4.167 4.167 0 0 1 -2.71-3.892v-32.441a7.881 7.881 0 0 0 0-14.428v-12.677a2.5 2.5 0 0 0 -2.5-2.5h-28.666a2.5 2.5 0 0 0 -2.5 2.5v12.675a7.881 7.881 0 0 0 0 14.428v32.443a4.166 4.166 0 0 1 -2.711 3.892l-12.323 4.556a28.126 28.126 0 0 0 -18.3 26.276v97.48a2.5 2.5 0 0 0 2.5 2.5h95.334a2.5 2.5 0 0 0 2.5-2.5v-97.475a28.124 28.124 0 0 0 -18.3-26.281zm-48.408-48.1a2.894 2.894 0 0 1 2.891-2.891h27.3a2.891 2.891 0 1 1 0 5.781h-27.3a2.894 2.894 0 0 1 -2.891-2.893zm4.708-17.391h23.666v9.5h-23.666zm57 186.75h-90.334v-94.978a23.106 23.106 0 0 1 15.034-21.587l12.328-4.561a9.184 9.184 0 0 0 5.976-8.581v-31.765h23.662v31.765a9.183 9.183 0 0 0 5.976 8.581l12.324 4.556a23.106 23.106 0 0 1 15.034 21.592z"/><path d="m220.962 155.459h-65.916a2.5 2.5 0 0 0 -2.5 2.5v65.916a2.5 2.5 0 0 0 2.5 2.5h65.916a2.5 2.5 0 0 0 2.5-2.5v-65.916a2.5 2.5 0 0 0 -2.5-2.5zm-2.5 65.916h-60.916v-60.916h60.916z"/></g></svg>